inDegrees=no
num_controls=7
num_derivatives=13
num_iterations=114
num_multipliers=7
num_parameters=0
num_slacks=7
num_states=26
objective=0.445093
objective_accelerations=0.057848
objective_balance=0.003539
objective_effort=0.023206
objective_height=0.354998
objective_ligament=0.005502
solver_duration=1816.162003
status=Solve_Succeeded
success=true
DataType=double
version=3
OpenSimVersion=4.5
endheader
time	/jointset/ground_pelvis/pelvis_tilt/value	/jointset/ground_pelvis/pelvis_tx/value	/jointset/ground_pelvis/pelvis_ty/value	/jointset/hip_l/hip_flexion_l/value	/jointset/hip_l/hip_adduction_l/value	/jointset/hip_l/hip_rotation_l/value	/jointset/back/lumbar_extension/value	/jointset/patellofemoral_l/patellar_flexion_l/value	/jointset/knee_l/knee_flexion_l/value	/jointset/knee_l/knee_adduction_l/value	/jointset/knee_l/knee_rotation_l/value	/jointset/ankle_l/ankle_angle_l/value	/jointset/subtalar_l/subtalar_angle_l/value	/jointset/ground_pelvis/pelvis_tilt/speed	/jointset/ground_pelvis/pelvis_tx/speed	/jointset/ground_pelvis/pelvis_ty/speed	/jointset/hip_l/hip_flexion_l/speed	/jointset/hip_l/hip_adduction_l/speed	/jointset/hip_l/hip_rotation_l/speed	/jointset/back/lumbar_extension/speed	/jointset/patellofemoral_l/patellar_flexion_l/speed	/jointset/knee_l/knee_flexion_l/speed	/jointset/knee_l/knee_adduction_l/speed	/jointset/knee_l/knee_rotation_l/speed	/jointset/ankle_l/ankle_angle_l/speed	/jointset/subtalar_l/subtalar_angle_l/speed	/forceset/tau_hip_flexion_l	/forceset/tau_hip_adduction_l	/forceset/tau_hip_rotation_l	/forceset/tau_knee_flexion_l	/forceset/tau_ankle_angle_l	/forceset/tau_subtalar_angle_l	/forceset/tau_lumbar_extension	lambda_cid13_p0	lambda_cid13_p1	lambda_cid13_p2	lambda_cid13_p3	lambda_cid13_p4	lambda_cid13_p5	lambda_cid14_p0	/jointset/ground_pelvis/pelvis_tilt/accel	/jointset/ground_pelvis/pelvis_tx/accel	/jointset/ground_pelvis/pelvis_ty/accel	/jointset/hip_l/hip_flexion_l/accel	/jointset/hip_l/hip_adduction_l/accel	/jointset/hip_l/hip_rotation_l/accel	/jointset/back/lumbar_extension/accel	/jointset/patellofemoral_l/patellar_flexion_l/accel	/jointset/knee_l/knee_flexion_l/accel	/jointset/knee_l/knee_adduction_l/accel	/jointset/knee_l/knee_rotation_l/accel	/jointset/ankle_l/ankle_angle_l/accel	/jointset/subtalar_l/subtalar_angle_l/accel	gamma_cid13_p0	gamma_cid13_p1	gamma_cid13_p2	gamma_cid13_p3	gamma_cid13_p4	gamma_cid13_p5	gamma_cid14_p0
1.5	-0.373654804937587	-0.02480362341971337	0.7606987812648623	1.114135011478679	-0.4354196881630841	-0.212924178612776	-0.2256089558967844	0.805072143000813	0.8050721430008028	-0.1313675888754409	-0.1472985551034294	0.1261354695587809	-0.02096035225419625	0.6905908213702022	0.2791483168376427	0.5378183327196822	-2.483598180517716	0.2093058124354238	-0.7240737218122885	0.3151523652489061	-2.016083752366626	-2.016083752366281	-0.1289367836323768	0.1310452894088019	-0.3894035575857697	0.04186292842729603	-0.178152745709934	0.03025485141695004	-0.008209254145729546	-0.1999501134302097	0.03984006346079638	0.0433779429138333	0.1707302068439778	-19.35418209261809	-18.43891009249463	6.017502495926273	-7.040515902573762	-519.9699042690478	-60.81181119189795	-24.97930856397469	0.6932767617507622	0.7032812539468999	-0.5217172007376709	-1.302343622604888	0.7238703854185782	-0.1827589296093224	1.476955344084425	-1.323700061804309	-1.323700061804274	0.1245057620544671	0.2317105194539528	-0.5156921346888877	0.5195613112200832	4.982616164979347e-07	5.364809809239938e-07	-2.776018416461841e-06	-9.159469896558565e-08	7.048161448331623e-07	-6.372942140326597e-08	4.598004258619733e-07
1.51	-0.3667143181311089	-0.02197722285276345	0.7660497987160449	1.089235666428634	-0.433291999645686	-0.2201727980650489	-0.222384936882001	0.7848475647039076	0.7848475647039296	-0.1326538362930711	-0.1459779238214155	0.1222159267644336	-0.0205175494926155	0.6974022759633289	0.28609745830568	0.5322694143104257	-2.495920949670792	0.2162047232162911	-0.7255204890231615	0.3296143128966478	-2.028542719974191	-2.028542719973989	-0.1283333826289415	0.1330836615841687	-0.3944289793550324	0.04669854345313586	-0.1719085565112397	0.0292337448851952	-0.00788708388563153	-0.1973042521283631	0.04005550020175982	0.04270006125460261	0.1656799443974637	-19.06284160766669	-18.20684682719598	5.993445277239426	-6.975725607387298	-515.9023478937478	-61.08318786128108	-25.89456299305623	0.6594607671264826	0.6856119298713483	-0.5887256750364298	-1.144732428954888	0.6688528017782868	-0.1058275469980331	1.425245753455196	-1.163696757683958	-1.16369675770548	0.02532002912163726	0.1899701675367838	-0.4845243746248632	0.4656711121664043	4.347999362073994e-07	1.028127358558929e-06	-1.942688470143663e-06	7.470082434453766e-08	6.190284124430467e-07	5.950581915280978e-08	4.193535743751661e-07
1.52	-0.3597088405868935	-0.01908235460380532	0.7713418776803316	1.064223595913597	-0.4310961317450079	-0.2274319235754642	-0.2190174121350732	0.7645070564014381	0.7645070564014881	-0.1339346371487451	-0.1446368948974508	0.1182484183170778	-0.02002636867799626	0.7035889689177702	0.2928418532392845	0.5260306353404949	-2.506143273515706	0.2229416890914568	-0.7261749334409042	0.3438535116778359	-2.039269753479812	-2.039269753479754	-0.1278474712401625	0.1351248177978846	-0.398996688187491	0.05153853903499461	-0.1656643673125478	0.02821263835344249	-0.007564913625573251	-0.1946583908265133	0.04027093694272448	0.04202217959537561	0.160629681950946	-18.77440337843974	-17.97652879931145	5.972241381904199	-6.939600126358606	-511.8965347842591	-61.40164371678248	-26.80937445800342	0.5683244340136608	0.6623319470603465	-0.6596893128725183	-0.8822545609726139	0.6914814042782451	-0.0242943709833131	1.432405570773676	-0.9773132414155586	-0.9773132414155555	0.1010078391232239	0.2322673271237524	-0.4241495473280595	0.5204374224238644	4.13411943918571e-07	1.287136593502137e-06	-1.580125892945906e-06	1.535105462097585e-07	6.011950186750148e-07	1.504189283822435e-07	4.051309636597916e-07
1.53	-0.3526446061411638	-0.016121291010108	0.7765681795237226	1.039119887381393	-0.4288337720585153	-0.2346938526740747	-0.2155089737148419	0.744067863863394	0.7440678638634387	-0.1352111433621484	-0.1432755049867536	0.1142372752275493	-0.01948696509014159	0.7091474181363471	0.2993132309862465	0.5191181284776247	-2.514215652502472	0.2295046713485677	-0.7261209610564896	0.3577677324319489	-2.048267357135327	-2.048267357135421	-0.1274328268253322	0.1371313190823484	-0.4031708800002118	0.05633802513987893	-0.1595940894488405	0.02754862875502665	-0.007207543847432357	-0.1914694093306139	0.0395418101249237	0.04106214795094419	0.1556086883818243	-18.80415331244513	-17.55995593540638	5.912198952083787	-6.440992165437426	-507.9269391760361	-61.43270123613276	-27.72372197456533	0.5330542004191469	0.6309218703403305	-0.7236351681556061	-0.712277526143929	0.6349256854320597	0.03412186465984272	1.360964337261075	-0.8158595934228655	-0.8158595934457935	0.01498148603907617	0.1811774388093444	-0.4048591029692726	0.4590814999971363	4.367272451315557e-07	1.29896886433539e-06	-1.717753645438591e-06	1.393666040397715e-07	6.55563109692946e-07	2.069897730771207e-07	4.187716087640641e-07
